<svg width="80" height="80" viewBox="0 0 80 80" xmlns="http://www.w3.org/2000/svg"><title>icon-80x80-AI</title><g fill="#FFF"><path d="M32.46 40.67v16.078h16.063V40.67H32.46zm14.727 14.686h-13.35v-13.35h13.35v13.35z"/><path d="M36.35 47.669c.004.43.02 1.107.069 1.867.055.814.139 1.627.25 2.435l2.146-2.043s-.078-1.022.049-2.548c0 0-2.377-.284-2.515.289h.001zm4.944 5.171c.556-.158.394-2.492.394-2.492-1.531.051-2.548-.077-2.548-.077l-2.146 2.043s1.137.222 2.42.368c.614.066 1.229.12 1.844.161.012 0 .024 0 .036-.003z"/><path d="M36.348 47.538l.001.13a.686.686 0 0 1 .152-.287c.177-.224.462-.282.577-.297.58-.077 1.438-.17 2.305-.197 1.53-.047 2.543.08 2.543.08l2.146-2.043s-1.126-.215-2.41-.366a35.336 35.336 0 0 0-1.99-.175c-.029-.001-.326-.037-.605.228l-2.46 2.335c-.28.265-.259.563-.259.59v.002zm5.058 5.315l-.131-.009a.68.68 0 0 0 .294-.136c.233-.166.306-.448.327-.561a24.3 24.3 0 0 0 .31-2.294c.122-1.526.045-2.544.045-2.544l2.147-2.043s.159 1.136.246 2.425c.057.842.072 1.585.077 1.998 0 .028.022.327-.257.592l-2.454 2.342c-.278.266-.575.23-.603.23zM33.837 39.89h.834v1.473h-.834V39.89zm2.504 0h.833v1.473h-.833V39.89zm2.503 0h.833v1.473h-.833V39.89zm2.503 0h.834v1.473h-.834V39.89zm2.503 0h.834v1.473h-.834V39.89zm2.503 0h.834v1.473h-.834V39.89zM33.837 56.01h.834v1.473h-.834V56.01zm2.504 0h.833v1.473h-.833V56.01zm2.503 0h.833v1.473h-.833V56.01zm2.503 0h.834v1.473h-.834V56.01zm2.503 0h.834v1.473h-.834V56.01zm2.503 0h.834v1.473h-.834V56.01zm-14.63-1.49h1.473v.834h-1.472v-.834zm0-2.503h1.473v.834h-1.472v-.834zm0-2.503h1.473v.834h-1.472v-.834zm0-2.503h1.473v.834h-1.472v-.834zm0-2.503h1.473v.834h-1.472v-.834zm0-2.503h1.473v.833h-1.472v-.833zM47.787 54.52h1.472v.834h-1.472v-.834zm0-2.503h1.472v.834h-1.472v-.834zm0-2.503h1.472v.834h-1.472v-.834zm0-2.503h1.472v.834h-1.472v-.834zm0-2.503h1.472v.834h-1.472v-.834zm0-2.503h1.472v.833h-1.472v-.833zm3.209.603v-.818h1.753l8.9-8.857-2.104-1.953 6.585-6.585-8.457-8.455-3.86 3.86-2.366-2.367V12.54L48.606 9.7l3.337-3.337 12.675 12.675V16.01l-5.688-5.687 2.225-2.225-4.041-4.041.582-.575 4.615 4.616-2.225 2.225 5.349 5.349v5.339L51.944 7.519l-2.181 2.182 2.5 2.5v4.895l1.55 1.549 3.86-3.86 9.611 9.611-6.565 6.565 2.107 1.955-9.74 9.693h-2.091z"/><path d="M45.416 38.501v-1.663h5.157l2.759-2.74-4.058-4.06-5.393.008v-6.648h2.758l6.328 6.328 3.472-3.472-6.978-6.978H42.9V11.31l5.083-5.082-1.403-1.402-4.525 4.525V3.346L44.922.48h4.466l7.306 7.306.976-.975.578.577-1.554 1.554-7.645-7.645H45.26l-2.386 2.386v3.694l3.707-3.707 2.559 2.558-5.42 5.42v6.81h6.079l7.795 7.795-4.627 4.627-6.667-6.666h-1.602v5.012l4.914-.007 4.875 4.877-3.576 3.557h-4.678v.847h-.817zm5.579 6.046v-.818h3.321l6.784-6.791 5.531.038 3.928-3.927-1.825-1.825-2.705 2.704-2.998-3 5.761-5.762.602.554-5.208 5.208 1.844 1.843 2.704-2.704 2.981 2.982-4.746 4.744-5.53-.039-6.785 6.793h-3.659z"/><path d="M56.01 48.723h-5.015v-.817h5.413l3.362 3.144 4.636-4.636-3.963-3.962 2.545-2.544h5.333v.817h-4.994l-1.728 1.727 3.963 3.963-5.79 5.789z"/><path d="M60.096 63.829l-4.788-4.805 4.07-4.07-4.501-4.257h-3.881v-.817h4.22l5.318 5.074-4.07 4.07 3.97 3.987 2.152.06-3.815-3.816 4.03-4.031L60.78 53.2l5.98-5.98.579.578-5.402 5.402 2.022 2.022-4.031 4.031 4.632 4.634z"/><path d="M58.939 65.944L51.73 58.72l3.776-3.703-2.492-2.401h-2.019v-.818h2.359l3.307 3.22-3.755 3.74 6.372 6.368h6.235l1.092-1.092-4.906-4.906 2.785-2.785v-4.03l4.99-4.99v-8.085l2.935-2.936V52.72l-6.452 6.453.956.84 1.328-1.329.578.579-1.907 1.906-2.111-1.996 6.79-6.792V38.276l-1.3 1.301v8.086l-4.99 4.988v4.031l-2.445 2.447 4.905 4.906-1.91 1.91z"/><path d="M58.272 68.39l-4.575-4.575-1.452 1.453-5.15-5.31 4.65-4.65-.322-.3h-.428v-.817h.749l1.18 1.094-4.674 4.673 3.996 4.152 1.45-1.451 4.915 4.914 4.164.02v.818l-4.503-.02zm-11.078 6.647l4.197-4.198-1.967-1.932-2.292 2.292-4.134-4.917V59h.817v6.944l3.318 4.097 2.286-2.285 3.133 3.078-4.202 4.203 3.327 3.327 5.261-5.262.578.578-5.84 5.84-4.482-4.483z"/><path d="M53.61 66.178l-1.263 1.263-4.766-4.766-1.555 1.296V59h-.817v6.944l2.336-2.078 4.766 4.766 1.246-1.246 2.529 2.528-5.261 5.26.634.634 5.888-5.887-3.738-3.743zm4.23-21.025l-1.529 1.512h-5.316v-.818h4.98l1.867-1.848 3.219 3.02-.58.577-2.642-2.443zM43.012 38.5v-3.667h6.003l.97-.97-.97-.971h-7.204v-11.91h6.507l4.567 4.568-.578.578-4.328-4.328h-5.351v10.274h6.725l1.787 1.788-1.787 1.789H43.83v2.85h-.817zm7.982 1.868v-.818h.869l5.995-5.954-2.713-2.668 5.814-5.815-4.568-4.568.578-.578 5.146 5.146-5.81 5.81 2.716 2.671-6.82 6.774h-1.207zm-2.793-28.505h-2.9v5.142h4.475V13.44l-1.575-1.575zm15.506 30.803l.55-.539 2.848-.079 1.087 1.095-1.974 2.082-2.51-2.56zM53.362 16.148l-.078-2.849 1.095-1.086 2.082 1.974-2.56 2.51-.539-.549zm13.2 37.048l3.633-3.632v2.492l-3.633 3.633v-2.493zM30.005 42.61v-.818h-1.753l-8.9-8.857 2.104-1.953-6.585-6.585 8.456-8.455 3.86 3.86 2.367-2.367V12.54l2.84-2.839-3.338-3.337-12.674 12.675V16.01l5.687-5.687-2.225-2.225 4.042-4.041-.582-.575-4.616 4.616 2.225 2.225-5.349 5.349v5.339L29.056 7.519l2.181 2.182-2.5 2.5v4.895l-1.55 1.549-3.86-3.86-9.611 9.611 6.565 6.565-2.107 1.955 9.74 9.693h2.091z"/><path d="M35.584 38.501v-1.663h-5.157l-2.759-2.74 4.058-4.06 5.393.008v-6.648h-2.758l-6.328 6.328-3.472-3.472 6.978-6.978h6.56V11.31l-5.083-5.082 1.403-1.402 4.525 4.525V3.346L36.078.48h-4.465l-7.307 7.306-.976-.975-.578.577 1.554 1.554 7.645-7.645h3.789l2.386 2.386v3.694L34.42 3.671l-2.56 2.558 5.42 5.42v6.81h-6.079l-7.795 7.795 4.627 4.627 6.667-6.666h1.602v5.012l-4.914-.007-4.875 4.877 3.576 3.557h4.678v.847h.817zm-5.579 6.046v-.818h-3.321L19.9 36.938l-5.531.038-3.928-3.927 1.825-1.825 2.705 2.704 2.998-3-5.762-5.762-.601.554 5.208 5.208-1.844 1.843-2.704-2.704-2.981 2.982 4.746 4.744 5.53-.039 6.785 6.793h3.659z"/><path d="M24.99 48.723h5.015v-.817h-5.412L21.23 51.05l-4.636-4.636 3.963-3.962-2.545-2.544h-5.333v.817h4.994l1.728 1.727-3.963 3.963 5.79 5.789z"/><path d="M20.904 63.829l4.788-4.805-4.07-4.07 4.501-4.257h3.881v-.817h-4.22l-5.318 5.074 4.07 4.07-3.97 3.987-2.152.06 3.815-3.816-4.03-4.031L20.22 53.2l-5.98-5.98-.578.578 5.401 5.402-2.022 2.022 4.031 4.031-4.632 4.634z"/><path d="M22.061 65.944l7.209-7.223-3.776-3.703 2.492-2.401h2.019v-.818h-2.359l-3.307 3.22 3.755 3.74-6.371 6.368h-6.235l-1.092-1.092 4.906-4.906-2.786-2.785v-4.03l-4.99-4.99v-8.085l-2.935-2.936V52.72l7.002 7.001.606-.548-6.79-6.792V38.276l1.3 1.301v8.086l4.99 4.988v4.031l2.446 2.447-4.905 4.906 1.91 1.91z"/><path d="M22.728 68.39l4.575-4.575 1.452 1.453 5.15-5.31-4.65-4.65.322-.3h.428v-.817h-.749l-1.18 1.094 4.674 4.673-3.996 4.152-1.45-1.451-4.915 4.914-4.164.02v.818l4.503-.02zm11.078 6.647l-4.197-4.198 1.967-1.932 2.292 2.292 4.134-4.917V59h-.817v6.944l-3.318 4.097-2.286-2.285-3.133 3.078 4.202 4.203-3.327 3.327-5.261-5.262-.578.578 5.84 5.84 4.482-4.483z"/><path d="M27.39 66.178l1.263 1.263 4.766-4.766 1.555 1.296V59h.817v6.944l-2.336-2.078-4.766 4.766-1.247-1.246-2.528 2.528 5.261 5.26-.634.634-5.888-5.887 3.738-3.743zm-4.23-21.025l1.529 1.512h5.316v-.818h-4.98l-1.867-1.848-3.22 3.02.58.577 2.643-2.443zM37.988 38.5v-3.667h-6.003l-.97-.97.97-.971h7.204v-11.91h-6.507l-4.567 4.568.578.578 4.328-4.328h5.351v10.274h-6.725l-1.787 1.788 1.787 1.789h5.524v2.85h.817zm-7.982 1.868v-.818h-.869l-5.995-5.954 2.713-2.668-5.814-5.815 4.568-4.568-.578-.578-5.146 5.146 5.81 5.81-2.716 2.671 6.82 6.774h1.207zm2.793-28.505h2.9v5.142h-4.475V13.44l1.575-1.575zM17.292 42.667l-.55-.539-2.848-.079-1.086 1.095 1.973 2.082 2.51-2.56zm10.345-26.519l.079-2.849-1.095-1.086-2.082 1.974 2.56 2.51.538-.549zm-13.2 37.048l-3.632-3.632v2.492l3.632 3.633v-2.493z"/></g></svg>